<svg width="897.000000" height="170.000000" viewBox="0 0 897 170" fill="none" xmlns="http://www.w3.org/2000/svg" xmlns:xlink="http://www.w3.org/1999/xlink">
	<desc>
			Created with Pixso.
	</desc>
	<defs>
		<clipPath id="clip1_27">
			<rect id="Frame 2 1" width="172.000000" height="170.000000" fill="white" fill-opacity="0"/>
		</clipPath>
	</defs>
	<rect id="Frame 2 1" width="172.000000" height="170.000000" fill="#FFFFFF" fill-opacity="0"/>
	<g clip-path="url(#clip1_27)">
		<path id="Vector" d="M86 158.06C45.09 158.06 11.93 124.9 11.93 84C11.93 43.09 45.09 9.93 86 9.93C126.9 9.93 160.06 43.09 160.06 84C160.06 124.9 126.9 158.06 86 158.06Z" stroke="#FFC42C" stroke-opacity="1.000000" stroke-width="11.000000"/>
		<path id="Vector" d="M45.71 38.97L45.71 110.3L61.5 123.81C65.44 127.18 70.45 129.03 75.62 129.03L99.62 129.03" stroke="#FFC42C" stroke-opacity="1.000000" stroke-width="11.000000"/>
		<path id="Vector" d="M126.29 129.03L126.29 57.69L110.49 44.18C106.55 40.81 101.55 38.97 96.37 38.97L72.37 38.97" stroke="#FFC42C" stroke-opacity="1.000000" stroke-width="11.000000"/>
	</g>
	<path id="U-Retouch" d="M875.19 65.66Q868.15 60.87 857.85 60.87Q850.7 60.87 844.85 63.12Q839.83 65.06 836.18 68.48Q835.61 69.02 835.07 69.59L835.07 35.03L819.07 35.03L819.07 130L835.07 130L835.07 95.43Q835.07 85.78 839.87 80.49Q840.03 80.32 840.2 80.15Q841.34 78.97 842.67 78.05Q847.29 74.84 854.13 74.84Q860.69 74.84 864.72 78.03Q865.49 78.64 866.17 79.37Q870.38 83.9 870.38 92.87L870.38 130L886.38 130L886.38 90.84Q886.38 76.7 879.33 69.2Q878.96 68.81 878.57 68.43Q876.99 66.89 875.19 65.66ZM281.46 130L281.46 40.4L264.84 40.4L264.84 90.96Q264.84 103.71 258.47 110.18Q258.45 110.2 258.43 110.21Q256.95 111.71 255.24 112.86Q249.54 116.68 241.28 116.68Q233.49 116.68 228.31 113Q226.85 111.96 225.59 110.62Q219.9 104.53 219.9 92.62L219.9 40.4L203.25 40.4L203.25 93.25Q203.25 111.35 212.25 121.28Q212.3 121.32 212.34 121.37Q214.64 123.88 217.38 125.75Q225.45 131.28 237.31 131.28Q251.22 131.28 259.82 124.52Q263.01 122.02 265.46 118.59L265.46 130L281.46 130ZM395.12 103.75L413.44 130L431.34 130L410.75 100.56Q418.34 97.6 423 92.14Q424.01 90.97 424.87 89.68Q425.49 88.76 426.04 87.8Q429.81 81.1 429.81 72.28Q429.81 63.07 425.79 56.22Q425.5 55.73 425.19 55.25Q424.34 53.93 423.36 52.73Q419 47.38 411.94 44.25Q403.31 40.4 391.69 40.4L354.81 40.4L354.81 130L371.47 130L371.47 103.87L391.69 103.87Q393.97 103.87 395.12 103.75ZM557.9 129.75Q561.93 128.59 564.74 126.28L560.24 114.9Q559.78 115.27 559.29 115.58Q555.98 117.71 551.3 117.71Q547.59 117.71 545.23 115.92Q544.74 115.54 544.3 115.09L544.3 115.08Q541.8 112.46 541.8 107.46L541.8 74.96L560.12 74.96L560.12 62.15L541.8 62.15L541.8 46.53L525.8 46.53L525.8 107.84Q525.8 118.08 530.88 123.89Q531.39 124.48 531.96 125.03Q532.28 125.33 532.62 125.62Q538.7 130.9 549.37 130.9Q553.87 130.9 557.9 129.75ZM410.16 62.02Q413.06 66.12 413.06 72.28Q413.06 78.32 410.24 82.43Q409.07 84.15 407.4 85.53Q401.78 90.18 390.9 90.18L371.47 90.18L371.47 54.46L390.9 54.46Q401.78 54.46 407.4 59.09Q409.01 60.39 410.16 62.02ZM491.51 114.58Q486.12 117.31 479.35 117.31Q471.82 117.31 466.44 114.25Q464.16 112.95 462.42 111.14Q460.03 108.68 458.63 105.28L510.97 95.06Q510.97 85.07 506.68 77.51Q506.52 77.22 506.35 76.93Q503.87 72.75 500.43 69.62Q497.5 66.94 493.88 65.03Q492.42 64.26 490.91 63.63Q484.23 60.87 476.41 60.87Q467.61 60.87 460.42 64.27Q459.33 64.78 458.29 65.37Q454.38 67.55 451.3 70.58Q448.07 73.75 445.75 77.84Q444.87 79.41 444.15 81.05Q441.22 87.79 441.22 95.81Q441.22 104.12 444.36 111.01Q445.05 112.5 445.88 113.93Q447.57 116.82 449.77 119.25Q453.66 123.56 459.13 126.43Q467.72 130.9 478.97 130.9Q487.82 130.9 494.85 128.09Q500.2 125.93 504.08 122.22Q505.3 121.06 506.38 119.75L497.91 109.9Q495 112.81 491.51 114.58ZM589.61 127.41Q597.17 130.9 606.33 130.9Q616.08 130.9 623.94 127.05Q624.55 126.76 625.15 126.43Q629.9 123.86 633.45 120.15Q636.12 117.36 638.12 113.93Q639 112.43 639.71 110.85Q642.8 104.03 642.8 95.81Q642.8 87.56 639.67 80.74Q638.97 79.22 638.12 77.78Q636.19 74.49 633.64 71.8Q630.02 67.99 625.15 65.37Q624.46 65 623.76 64.66Q615.97 60.87 606.33 60.87Q597.27 60.87 589.79 64.3Q588.7 64.8 587.65 65.37Q582.82 67.97 579.21 71.74Q576.61 74.45 574.65 77.78Q573.84 79.15 573.17 80.59Q569.99 87.46 569.99 95.81Q569.99 104.12 573.13 111.01Q573.81 112.5 574.65 113.93Q576.68 117.4 579.39 120.21Q582.94 123.88 587.65 126.43Q588.62 126.95 589.61 127.41ZM758.66 126.96Q766.71 130.9 776.69 130.9Q786.69 130.9 794.28 126.75Q798.29 124.54 801.29 121.38Q803.99 118.53 805.87 114.9L793.59 107.71Q791.03 111.85 787.34 114.19Q786.79 114.53 786.22 114.84Q784.96 115.51 783.63 115.99Q780.31 117.18 776.56 117.18Q770.47 117.18 765.85 114.58Q763.58 113.29 761.66 111.37Q760.37 110.09 759.37 108.61Q755.84 103.4 755.84 95.81Q755.84 88.39 759.26 83.25Q760.32 81.66 761.72 80.28Q763.93 78.09 766.57 76.72Q770.98 74.43 776.56 74.43Q780.22 74.43 783.47 75.59Q784.88 76.09 786.22 76.81Q786.84 77.14 787.44 77.52Q791.07 79.85 793.59 83.9L805.87 76.75Q804.03 73.05 801.3 70.18Q798.36 67.09 794.41 64.96Q786.81 60.87 776.69 60.87Q766.09 60.87 757.8 65.25Q757.68 65.31 757.56 65.37Q752.62 68.01 748.94 71.85Q746.38 74.52 744.44 77.78Q743.53 79.3 742.8 80.89Q739.72 87.65 739.72 95.81Q739.72 103.94 742.76 110.7Q743.51 112.36 744.44 113.93Q746.36 117.18 748.9 119.85Q752.61 123.76 757.62 126.43Q758.14 126.71 758.66 126.96ZM724.33 130L724.33 61.65L708.36 61.65L708.36 96.21Q708.36 105.99 703.49 111.29Q703.4 111.4 703.3 111.5Q702.01 112.85 700.5 113.85Q696.05 116.81 689.64 116.81Q683.4 116.81 679.46 113.79Q678.57 113.11 677.8 112.28Q673.64 107.71 673.64 98.5L673.64 61.65L657.64 61.65L657.64 100.68Q657.64 114.87 664.72 122.47Q665.11 122.88 665.52 123.28Q666.55 124.28 667.69 125.15Q675.2 130.9 687.11 130.9Q692.79 130.9 697.81 129.08Q698.67 128.77 699.52 128.4Q703.5 126.67 706.57 123.92Q707.93 122.7 709.11 121.28L709.11 130L724.33 130ZM466.03 76.3Q470.45 73.68 476.41 73.68Q482.01 73.68 486.32 76.03Q487.53 76.69 488.63 77.53Q490.96 79.29 492.56 81.57Q494.45 84.24 495.35 87.62L456.69 95.06L456.69 94.93Q456.69 86.59 460.67 81.17Q461.35 80.26 462.13 79.43Q463.9 77.56 466.03 76.3ZM616.12 114.92Q611.82 117.18 606.33 117.18Q600.78 117.18 596.48 114.87Q593.92 113.5 591.8 111.31Q590.54 110 589.56 108.51Q586.12 103.29 586.12 95.81Q586.12 88.4 589.51 83.2Q590.51 81.67 591.8 80.34Q593.95 78.11 596.55 76.72Q600.83 74.43 606.33 74.43Q611.78 74.43 616.05 76.67Q618.72 78.07 620.93 80.34Q622.3 81.74 623.35 83.36Q626.68 88.51 626.68 95.81Q626.68 103.18 623.3 108.35Q622.27 109.93 620.93 111.31Q618.75 113.54 616.12 114.92ZM335.75 87.75L300.53 87.75L300.53 101.06L335.75 101.06L335.75 87.75Z" fill="#FFFFFF" fill-opacity="1.000000" fill-rule="evenodd"/>
</svg>
