<svg width="172.000000" height="170.000000" viewBox="0 0 172 170" fill="none" xmlns="http://www.w3.org/2000/svg" xmlns:xlink="http://www.w3.org/1999/xlink">
	<desc>
			Created with Pixso.
	</desc>
	<defs>
		<clipPath id="clip1_27">
			<rect id="Frame 2 1" width="172.000000" height="170.000000" fill="white" fill-opacity="0"/>
		</clipPath>
	</defs>
	<rect id="Frame 2 1" width="172.000000" height="170.000000" fill="#FFFFFF" fill-opacity="0"/>
	<g clip-path="url(#clip1_27)">
		<path id="Vector" d="M86 158.06C45.09 158.06 11.93 124.9 11.93 84C11.93 43.09 45.09 9.93 86 9.93C126.9 9.93 160.06 43.09 160.06 84C160.06 124.9 126.9 158.06 86 158.06Z" stroke="#FFC42C" stroke-opacity="1.000000" stroke-width="11.000000"/>
		<path id="Vector" d="M45.71 38.97L45.71 110.3L61.5 123.81C65.44 127.18 70.45 129.03 75.62 129.03L99.62 129.03" stroke="#FFC42C" stroke-opacity="1.000000" stroke-width="11.000000"/>
		<path id="Vector" d="M126.29 129.03L126.29 57.69L110.49 44.18C106.55 40.81 101.55 38.97 96.37 38.97L72.37 38.97" stroke="#FFC42C" stroke-opacity="1.000000" stroke-width="11.000000"/>
	</g>
</svg>
